{"asset":{"version":"2.0","generator":"Sky Capel extractor"},"scene":0,"scenes":[{"nodes":[0]}],"nodes":[{"name":"Capel","children":[1,2,3,4,5,6,7]},{"name":"body_14_0","mesh":0},{"name":"body_14_1","mesh":1},{"name":"body_20_4","mesh":2},{"name":"body_20_5","mesh":3},{"name":"body_32_0","mesh":4},{"name":"panel_0_0","mesh":5},{"name":"orb_0_0","mesh":6}],"meshes":[{"primitives":[{"attributes":{"POSITION":0,"NORMAL":1,"TEXCOORD_0":2,"COLOR_0":3},"indices":4,"material":0}]},{"primitives":[{"attributes":{"POSITION":5,"NORMAL":6,"TEXCOORD_0":7,"COLOR_0":8},"indices":9,"material":1}]},{"primitives":[{"attributes":{"POSITION":10,"NORMAL":11,"TEXCOORD_0":12,"COLOR_0":13},"indices":14,"material":0}]},{"primitives":[{"attributes":{"POSITION":15,"NORMAL":16,"TEXCOORD_0":17,"COLOR_0":18},"indices":19,"material":1}]},{"primitives":[{"attributes":{"POSITION":20,"NORMAL":21,"TEXCOORD_0":22,"COLOR_0":23},"indices":24,"material":2}]},{"primitives":[{"attributes":{"POSITION":25,"NORMAL":26,"TEXCOORD_0":27,"COLOR_0":28},"indices":29,"material":3}]},{"primitives":[{"attributes":{"POSITION":30,"NORMAL":31,"TEXCOORD_0":32,"COLOR_0":33},"indices":34,"material":4}]}],"accessors":[{"bufferView":0,"componentType":5126,"type":"VEC3","count":8,"min":[-0.5,1.2000000476837158,-0.050012207031249645],"max":[0.5,1.2000000476837158,0.04996290206909215]},{"bufferView":1,"componentType":5126,"type":"VEC3","count":8,"min":[-0.0,1.0,0.0],"max":[-0.0,1.0,0.0]},{"bufferView":2,"componentType":5126,"type":"VEC2","count":8},{"bufferView":3,"componentType":5121,"type":"VEC4","count":8,"normalized":true},{"bufferView":4,"componentType":5123,"type":"SCALAR","count":12},{"bufferView":5,"componentType":5126,"type":"VEC3","count":196,"min":[-0.7000000029802322,0.0,-0.47750196456909144],"max":[0.7000000476837158,1.2000000476837158,0.42966308593750036]},{"bufferView":6,"componentType":5126,"type":"VEC3","count":196,"min":[-1.0,0.0,-1.0],"max":[1.0,1.0,1.0]},{"bufferView":7,"componentType":5126,"type":"VEC2","count":196},{"bufferView":8,"componentType":5121,"type":"VEC4","count":196,"normalized":true},{"bufferView":9,"componentType":5123,"type":"SCALAR","count":270},{"bufferView":10,"componentType":5126,"type":"VEC3","count":4,"min":[-0.05002400279045105,1.2000000476837158,0.30002393722534215],"max":[0.049951016902923584,1.2000000476837158,0.5000370979309086]},{"bufferView":11,"componentType":5126,"type":"VEC3","count":4,"min":[-0.0,1.0,0.0],"max":[-0.0,1.0,0.0]},{"bufferView":12,"componentType":5126,"type":"VEC2","count":4},{"bufferView":13,"componentType":5121,"type":"VEC4","count":4,"normalized":true},{"bufferView":14,"componentType":5123,"type":"SCALAR","count":6},{"bufferView":15,"componentType":5126,"type":"VEC3","count":70,"min":[-0.3375920057296753,0.0,0.30002393722534215],"max":[0.33765602111816406,1.2000000476837158,0.6999877929687504]},{"bufferView":16,"componentType":5126,"type":"VEC3","count":70,"min":[-1.0,0.0,-1.0],"max":[1.0,0.762220025062561,1.0]},{"bufferView":17,"componentType":5126,"type":"VEC2","count":70},{"bufferView":18,"componentType":5121,"type":"VEC4","count":70,"normalized":true},{"bufferView":19,"componentType":5123,"type":"SCALAR","count":96},{"bufferView":20,"componentType":5126,"type":"VEC3","count":70,"min":[-0.7091410011053085,0.0,-0.49038085937499964],"max":[-0.26800499856472015,0.09549299627542496,-0.12258300781249964]},{"bufferView":21,"componentType":5126,"type":"VEC3","count":70,"min":[-0.7704780101776123,0.3757239878177643,-0.9087929725646973],"max":[0.7703710198402405,0.9213330149650574,0.9087169766426086]},{"bufferView":22,"componentType":5126,"type":"VEC2","count":70},{"bufferView":23,"componentType":5121,"type":"VEC4","count":70,"normalized":true},{"bufferView":24,"componentType":5123,"type":"SCALAR","count":72},{"bufferView":25,"componentType":5126,"type":"VEC3","count":52,"min":[-0.28349998593330383,-0.0,0.5623539984226227],"max":[0.28349998593330383,0.9205999970436096,0.9876460004597902]},{"bufferView":26,"componentType":5126,"type":"VEC3","count":52,"min":[-1.0,-0.739916980266571,-1.0],"max":[1.0,1.0,1.0]},{"bufferView":27,"componentType":5126,"type":"VEC2","count":52},{"bufferView":28,"componentType":5121,"type":"VEC4","count":52,"normalized":true},{"bufferView":29,"componentType":5123,"type":"SCALAR","count":78},{"bufferView":30,"componentType":5126,"type":"VEC3","count":152,"min":[-0.24193400144577026,1.100000023841858,-0.241907000541687],"max":[0.24193400144577026,1.280500054359436,0.24191899597644806]},{"bufferView":31,"componentType":5126,"type":"VEC3","count":152,"min":[-0.9238889813423157,0.0,-0.923882007598877],"max":[0.9238889813423157,1.0,0.923882007598877]},{"bufferView":32,"componentType":5126,"type":"VEC2","count":152},{"bufferView":33,"componentType":5121,"type":"VEC4","count":152,"normalized":true},{"bufferView":34,"componentType":5123,"type":"SCALAR","count":216}],"bufferViews":[{"buffer":0,"byteOffset":0,"byteLength":96},{"buffer":0,"byteOffset":96,"byteLength":96},{"buffer":0,"byteOffset":192,"byteLength":64},{"buffer":0,"byteOffset":256,"byteLength":32},{"buffer":0,"byteOffset":288,"byteLength":24},{"buffer":0,"byteOffset":312,"byteLength":2352},{"buffer":0,"byteOffset":2664,"byteLength":2352},{"buffer":0,"byteOffset":5016,"byteLength":1568},{"buffer":0,"byteOffset":6584,"byteLength":784},{"buffer":0,"byteOffset":7368,"byteLength":540},{"buffer":0,"byteOffset":7908,"byteLength":48},{"buffer":0,"byteOffset":7956,"byteLength":48},{"buffer":0,"byteOffset":8004,"byteLength":32},{"buffer":0,"byteOffset":8036,"byteLength":16},{"buffer":0,"byteOffset":8052,"byteLength":12},{"buffer":0,"byteOffset":8064,"byteLength":840},{"buffer":0,"byteOffset":8904,"byteLength":840},{"buffer":0,"byteOffset":9744,"byteLength":560},{"buffer":0,"byteOffset":10304,"byteLength":280},{"buffer":0,"byteOffset":10584,"byteLength":192},{"buffer":0,"byteOffset":10776,"byteLength":840},{"buffer":0,"byteOffset":11616,"byteLength":840},{"buffer":0,"byteOffset":12456,"byteLength":560},{"buffer":0,"byteOffset":13016,"byteLength":280},{"buffer":0,"byteOffset":13296,"byteLength":144},{"buffer":0,"byteOffset":13440,"byteLength":624},{"buffer":0,"byteOffset":14064,"byteLength":624},{"buffer":0,"byteOffset":14688,"byteLength":416},{"buffer":0,"byteOffset":15104,"byteLength":208},{"buffer":0,"byteOffset":15312,"byteLength":156},{"buffer":0,"byteOffset":15468,"byteLength":1824},{"buffer":0,"byteOffset":17292,"byteLength":1824},{"buffer":0,"byteOffset":19116,"byteLength":1216},{"buffer":0,"byteOffset":20332,"byteLength":608},{"buffer":0,"byteOffset":20940,"byteLength":432}],"buffers":[{"byteLength":21372,"uri":"data:application/octet-stream;base64,"}],"images":[{"uri":"T31I0603.png"},{"uri":"T31I1103.png"},{"uri":"T31I0703.png"},{"uri":"T31I3003.png"},{"uri":"T31I3003.png"}],"textures":[{"source":0},{"source":1},{"source":2},{"source":3},{"source":4}],"materials":[{"pbrMetallicRoughness":{"baseColorTexture":{"index":0},"metallicFactor":0.0},"extensions":{"KHR_materials_unlit":{}},"alphaMode":"MASK","extras":{"skyShadowReceiver":true},"alphaCutoff":0.1,"doubleSided":true},{"pbrMetallicRoughness":{"baseColorTexture":{"index":1},"metallicFactor":0.0},"extensions":{"KHR_materials_unlit":{}},"alphaMode":"MASK","extras":{"skyShadowReceiver":true},"alphaCutoff":0.1,"doubleSided":true},{"pbrMetallicRoughness":{"baseColorTexture":{"index":2},"metallicFactor":0.0},"extensions":{"KHR_materials_unlit":{}},"alphaMode":"MASK","extras":{"skyShadowReceiver":true},"alphaCutoff":0.1,"doubleSided":true},{"pbrMetallicRoughness":{"baseColorTexture":{"index":3},"metallicFactor":0.0},"extensions":{"KHR_materials_unlit":{}},"alphaMode":"MASK","extras":{"skyShadowReceiver":false},"alphaCutoff":0.1,"doubleSided":true},{"pbrMetallicRoughness":{"baseColorTexture":{"index":4},"metallicFactor":0.0},"extensions":{"KHR_materials_unlit":{}},"alphaMode":"MASK","extras":{"skyShadowReceiver":false},"alphaCutoff":0.1,"doubleSided":true}],"extensionsUsed":["KHR_materials_unlit"],"extras":{"source":["T3119._X3","T31MAC03._X3","T31ORB00._X3"]}}