{"asset":{"version":"2.0","generator":"Capel seeded Esmelas kit"},"buffers":[{"byteLength":102360,"uri":"data:application/octet-stream;base64,"}],"bufferViews":[{"buffer":0,"byteOffset":0,"byteLength":14616},{"buffer":0,"byteOffset":14616,"byteLength":9744},{"buffer":0,"byteOffset":24360,"byteLength":46656},{"buffer":0,"byteOffset":71016,"byteLength":31104},{"buffer":0,"byteOffset":102120,"byteLength":144},{"buffer":0,"byteOffset":102264,"byteLength":96}],"accessors":[{"bufferView":0,"componentType":5126,"count":1218,"type":"VEC3","min":[3.75,0,0.75],"max":[35.25,0,29.25]},{"bufferView":1,"componentType":5126,"count":1218,"type":"VEC2"},{"bufferView":2,"componentType":5126,"count":3888,"type":"VEC3","min":[3.69,0,0.69],"max":[35.31,1.5,29.31]},{"bufferView":3,"componentType":5126,"count":3888,"type":"VEC2"},{"bufferView":4,"componentType":5126,"count":12,"type":"VEC3","min":[4.02,0.012,11.52],"max":[31.98,0.012,28.98]},{"bufferView":5,"componentType":5126,"count":12,"type":"VEC2"}],"images":[{"uri":"C07C0004.png"},{"uri":"C07C0204.png"},{"uri":"C07C1104.png"}],"textures":[{"source":0,"sampler":0},{"source":1,"sampler":0},{"source":2,"sampler":0}],"samplers":[{"magFilter":9728,"minFilter":9728,"wrapS":10497,"wrapT":10497}],"materials":[{"name":"C07C0004.png","doubleSided":true,"extensions":{"KHR_materials_unlit":{}},"pbrMetallicRoughness":{"baseColorTexture":{"index":0}},"extras":{"skyShadowReceiver":true}},{"name":"C07C0204.png","doubleSided":true,"extensions":{"KHR_materials_unlit":{}},"pbrMetallicRoughness":{"baseColorTexture":{"index":1}},"extras":{"skyShadowReceiver":true}},{"name":"C07C1104.png","doubleSided":true,"extensions":{"KHR_materials_unlit":{}},"pbrMetallicRoughness":{"baseColorTexture":{"index":2}},"extras":{"skyShadowReceiver":true}}],"meshes":[{"primitives":[{"attributes":{"POSITION":0,"TEXCOORD_0":1},"material":0},{"attributes":{"POSITION":2,"TEXCOORD_0":3},"material":1},{"attributes":{"POSITION":4,"TEXCOORD_0":5},"material":2}]}],"nodes":[{"mesh":0,"name":"Esmelas floor 3"}],"scenes":[{"nodes":[0]}],"scene":0,"extensionsUsed":["KHR_materials_unlit"]}