{"asset":{"version":"2.0","generator":"Capel Esmelas FC platform network v2"},"buffers":[{"byteLength":89520,"uri":"data:application/octet-stream;base64,"}],"bufferViews":[{"buffer":0,"byteOffset":0,"byteLength":6336},{"buffer":0,"byteOffset":6336,"byteLength":4224},{"buffer":0,"byteOffset":10560,"byteLength":17136},{"buffer":0,"byteOffset":27696,"byteLength":11424},{"buffer":0,"byteOffset":39120,"byteLength":16416},{"buffer":0,"byteOffset":55536,"byteLength":10944},{"buffer":0,"byteOffset":66480,"byteLength":648},{"buffer":0,"byteOffset":67128,"byteLength":432},{"buffer":0,"byteOffset":67560,"byteLength":10872},{"buffer":0,"byteOffset":78432,"byteLength":7248},{"buffer":0,"byteOffset":85680,"byteLength":2304},{"buffer":0,"byteOffset":87984,"byteLength":1536}],"accessors":[{"bufferView":0,"componentType":5126,"count":528,"type":"VEC3","min":[-9.62228395963703,0,-8.766848308097732],"max":[44.75851665999292,0,46.25725907598744]},{"bufferView":1,"componentType":5126,"count":528,"type":"VEC2"},{"bufferView":2,"componentType":5126,"count":1428,"type":"VEC3","min":[-9.62228395963703,-4,-8.766848308097732],"max":[44.75851665999292,1.45,46.25725907598744]},{"bufferView":3,"componentType":5126,"count":1428,"type":"VEC2"},{"bufferView":4,"componentType":5126,"count":1368,"type":"VEC3","min":[-2.659103034392272,-4,-5.2233695216702305],"max":[35.548506573907915,1.7,44.93593492223962]},{"bufferView":5,"componentType":5126,"count":1368,"type":"VEC2"},{"bufferView":6,"componentType":5126,"count":54,"type":"VEC3","min":[-1.916974918496446,0.06,-1.9407435384336795],"max":[40.10763784782018,0.06,40.28026977123963]},{"bufferView":7,"componentType":5126,"count":54,"type":"VEC2"},{"bufferView":8,"componentType":5126,"count":906,"type":"VEC3","min":[-9.62228395963703,0.045,-8.766848308097732],"max":[44.75851665999292,1.45,46.25725907598744]},{"bufferView":9,"componentType":5126,"count":906,"type":"VEC2"},{"bufferView":10,"componentType":5126,"count":192,"type":"VEC3","min":[-0.17582706789602298,0.015,-1.597841659667742],"max":[19.105867958583598,0.015,39.855153995081565]},{"bufferView":11,"componentType":5126,"count":192,"type":"VEC2"}],"images":[{"uri":"C04C0107.png"},{"uri":"C04C0607.png"},{"uri":"C04C0307.png"},{"uri":"C04C1007.png"},{"uri":"C04C0007.png"},{"uri":"C04C0207.png"}],"textures":[{"source":0,"sampler":0},{"source":1,"sampler":0},{"source":2,"sampler":0},{"source":3,"sampler":0},{"source":4,"sampler":0},{"source":5,"sampler":0}],"samplers":[{"magFilter":9728,"minFilter":9728,"wrapS":10497,"wrapT":10497}],"materials":[{"name":"C04C0107.png","doubleSided":true,"extensions":{"KHR_materials_unlit":{}},"pbrMetallicRoughness":{"baseColorTexture":{"index":0}},"extras":{"skyShadowReceiver":true}},{"name":"C04C0607.png","doubleSided":true,"extensions":{"KHR_materials_unlit":{}},"pbrMetallicRoughness":{"baseColorTexture":{"index":1}},"extras":{"skyShadowReceiver":true}},{"name":"C04C0307.png","doubleSided":true,"extensions":{"KHR_materials_unlit":{}},"pbrMetallicRoughness":{"baseColorTexture":{"index":2}},"extras":{"skyShadowReceiver":true}},{"name":"C04C1007.png","doubleSided":true,"extensions":{"KHR_materials_unlit":{}},"pbrMetallicRoughness":{"baseColorTexture":{"index":3}},"extras":{"skyShadowReceiver":true}},{"name":"C04C0007.png","doubleSided":true,"extensions":{"KHR_materials_unlit":{}},"pbrMetallicRoughness":{"baseColorTexture":{"index":4}},"extras":{"skyShadowReceiver":true}},{"name":"C04C0207.png","doubleSided":true,"extensions":{"KHR_materials_unlit":{}},"pbrMetallicRoughness":{"baseColorTexture":{"index":5}},"extras":{"skyShadowReceiver":true}}],"meshes":[{"primitives":[{"attributes":{"POSITION":0,"TEXCOORD_0":1},"material":0},{"attributes":{"POSITION":2,"TEXCOORD_0":3},"material":1},{"attributes":{"POSITION":4,"TEXCOORD_0":5},"material":2},{"attributes":{"POSITION":6,"TEXCOORD_0":7},"material":3},{"attributes":{"POSITION":8,"TEXCOORD_0":9},"material":4},{"attributes":{"POSITION":10,"TEXCOORD_0":11},"material":5}]}],"nodes":[{"mesh":0,"name":"Esmelas platforms floor 1"}],"scenes":[{"nodes":[0]}],"scene":0,"extensionsUsed":["KHR_materials_unlit"]}